<svg width="35" height="34" viewBox="0 0 35 34" fill="none" xmlns="http://www.w3.org/2000/svg">
<g id="Group 175">
<g id="Group 174">
<path id="Vector" d="M33.5491 19.7482C33.1378 19.0312 32.7231 18.3142 32.3119 17.5937C32.108 17.2246 32.108 16.7923 32.3119 16.4232C32.3646 16.3283 32.4173 16.237 32.47 16.1456C32.7266 15.6957 32.9867 15.2493 33.2433 14.7994C33.419 14.4936 33.5983 14.1878 33.774 13.8786C34.1782 13.1545 34.0728 12.2266 33.4823 11.6326C33.2116 11.362 32.8356 11.1862 32.5087 10.9964L31.0958 10.1845C30.7829 10.0053 30.3893 9.83657 30.1749 9.53782C29.9183 9.17931 29.9499 8.7716 29.9499 8.36037V6.74709C29.9499 6.37804 29.9781 5.99493 29.9253 5.6294C29.8023 4.78937 29.0853 4.16725 28.2558 4.07939C27.9149 4.04424 27.5564 4.07236 27.2119 4.07236H25.6092C25.1909 4.07236 24.7832 4.09696 24.4318 3.81226C24.1506 3.5838 23.9819 3.19015 23.8026 2.88085C23.532 2.40987 23.2613 1.93889 22.9907 1.47143C22.7939 1.1305 22.6146 0.747388 22.3159 0.48378C21.7078 -0.0539787 20.8362 -0.138333 20.1332 0.255321C19.3635 0.687637 18.6008 1.13753 17.8381 1.57687C17.7396 1.63311 17.6447 1.69286 17.5463 1.74207C17.1949 1.92835 16.7696 1.90375 16.4251 1.71395C16.1158 1.54172 15.8136 1.36247 15.5043 1.18322C15.0544 0.926641 14.608 0.666548 14.1581 0.406456C13.7117 0.149878 13.2654 -0.0539786 12.7311 0.0128019C12.0809 0.0936415 11.5958 0.48378 11.2725 1.03911C11.0405 1.4398 10.8085 1.84399 10.5766 2.24468C10.3551 2.6313 10.1302 3.01793 9.90875 3.40455C9.66975 3.82281 9.29015 4.06533 8.8016 4.06533C7.90182 4.06884 7.00204 4.06533 6.09874 4.06533C5.51529 4.06533 4.95644 4.22349 4.55225 4.67338C4.26755 4.98971 4.10587 5.38336 4.07072 5.80513C4.06018 5.92112 4.06721 6.04062 4.06721 6.15661C4.06721 7.04585 4.07775 7.93508 4.06721 8.82432C4.06369 9.33044 3.779 9.68544 3.35723 9.92795C2.95303 10.1599 2.54883 10.3954 2.14463 10.6274L0.995305 11.2917C0.408339 11.6291 0.0181999 12.2126 0.000626098 12.9014C-0.013433 13.4005 0.211512 13.8047 0.450516 14.2195C0.717638 14.6799 0.981246 15.1439 1.24837 15.6078C1.42059 15.9066 1.62445 16.2053 1.76855 16.5181C1.92672 16.8626 1.89508 17.2633 1.71232 17.5901C1.65608 17.6921 1.59633 17.794 1.53658 17.8924C1.10778 18.6375 0.668432 19.3792 0.24666 20.1278C-0.168083 20.8694 -0.0485806 21.8395 0.591107 22.4194C0.872288 22.676 1.24134 22.8482 1.56821 23.038C2.03919 23.3087 2.50665 23.5793 2.97763 23.8499C3.30099 24.0362 3.6841 24.2014 3.88796 24.5318C4.1129 24.8903 4.07072 25.298 4.07072 25.7022V27.3225C4.07072 27.6916 4.03909 28.0817 4.10587 28.4473C4.26052 29.2838 5.01971 29.8953 5.85622 29.934C6.19364 29.9481 6.53106 29.934 6.86848 29.934H8.44309C8.88595 29.934 9.30773 29.927 9.65569 30.2609C9.90875 30.5034 10.0669 30.8795 10.2391 31.1782C10.5063 31.6422 10.7734 32.1096 11.044 32.5736C11.2514 32.9321 11.4377 33.3187 11.7681 33.5823C12.3796 34.0709 13.2091 34.1306 13.891 33.744C14.2284 33.5542 14.5623 33.3574 14.8962 33.1641L16.2142 32.4049C16.3197 32.3451 16.4216 32.2748 16.5341 32.2256C16.8785 32.0745 17.2722 32.1061 17.5991 32.2889C18.3688 32.7212 19.1315 33.1711 19.8942 33.614C19.9821 33.6632 20.0664 33.7159 20.1543 33.7651C20.5444 33.9795 20.9803 34.0463 21.4161 33.9689C22.0171 33.8635 22.4529 33.4523 22.7482 32.9426C23.2016 32.1553 23.655 31.3645 24.1119 30.5772C24.3544 30.1589 24.7411 29.934 25.2226 29.934H27.943C28.537 29.934 29.1099 29.7512 29.5001 29.2767C29.7742 28.9428 29.9324 28.5351 29.9394 28.0993C29.9429 28.0009 29.9394 27.8989 29.9394 27.8005V26.2646C29.9394 25.899 29.9359 25.5335 29.9394 25.168C29.9429 24.8411 30.0659 24.5388 30.3014 24.3139C30.4104 24.2084 30.5404 24.1346 30.6705 24.0608C31.4578 23.6074 32.2451 23.1575 33.0289 22.7006C33.6264 22.3562 34.0236 21.7341 34.0095 21.0346C34.013 20.5496 33.7845 20.1594 33.5491 19.7482ZM9.77519 12.0684C9.92632 11.4674 10.2813 10.8699 10.7593 10.4727C11.3147 10.0123 11.9297 9.75573 12.6468 9.68192C13.898 9.55539 15.2125 10.3111 15.7433 11.4498C16.0526 12.1071 16.1299 12.7784 16.0139 13.4919C15.919 14.093 15.5921 14.6588 15.1774 15.0982L15.1422 15.1333L15.0965 15.179C14.0456 16.1667 12.3621 16.3846 11.1424 15.5586C10.0036 14.7889 9.44129 13.4146 9.77519 12.0684ZM15.9717 19.5022L13.3673 22.1066L12.2812 23.1927C11.877 23.5969 11.2408 23.5688 10.8331 23.1927C10.4254 22.8166 10.4535 22.1242 10.8331 21.7446L10.8507 21.727C11.283 21.2771 11.7364 20.8413 12.1793 20.3984L14.9067 17.671L18.0595 14.5182L20.6639 11.9138L21.75 10.8277C22.1542 10.4235 22.7904 10.4517 23.1981 10.8277C23.6058 11.2038 23.5777 11.8962 23.1981 12.2758L23.1805 12.2934C22.7482 12.7433 22.2948 13.1791 21.8519 13.622L19.1245 16.3494L15.9717 19.5022ZM24.2982 21.7657C24.2033 22.3667 23.8764 22.9361 23.4617 23.3719L23.4265 23.4071L23.3808 23.4528C22.3299 24.4404 20.6464 24.6583 19.4267 23.8359C18.2879 23.0661 17.7256 21.6884 18.063 20.3422C18.2141 19.7412 18.5691 19.1437 19.0471 18.7465C19.6025 18.2826 20.2176 18.026 20.9346 17.9557C22.1858 17.8291 23.5003 18.5883 24.0311 19.7236C24.3333 20.3809 24.4107 21.0487 24.2982 21.7657Z" fill="#1FC1C3"/>
</g>
<path id="Vector_2" d="M14.0247 13.0243C14.0247 13.0278 14.0247 13.0278 14.0247 13.0243C14.0036 13.1262 13.9755 13.2246 13.9439 13.323C13.9052 13.4004 13.8631 13.4777 13.8138 13.5515C13.8103 13.5585 13.8068 13.5621 13.8033 13.5691C13.7682 13.6077 13.733 13.6464 13.6943 13.6851C13.6557 13.7237 13.617 13.7589 13.5784 13.794C13.5748 13.7975 13.5678 13.8011 13.5608 13.8046C13.487 13.8538 13.4096 13.896 13.3323 13.9346C13.2339 13.9698 13.1355 13.9944 13.0371 14.0155C12.9352 14.0225 12.8297 14.0225 12.7278 14.0155C12.6259 13.9944 12.5274 13.9662 12.4325 13.9346C12.3552 13.896 12.2779 13.8538 12.2041 13.8046C12.1971 13.8011 12.19 13.7975 12.1865 13.794C12.1478 13.7589 12.1092 13.7237 12.0705 13.6851C12.0319 13.6464 11.9967 13.6077 11.9616 13.5691C11.9581 13.5656 11.9545 13.5585 11.951 13.5515C11.9018 13.4777 11.8596 13.4004 11.821 13.323C11.7858 13.2246 11.7612 13.1262 11.7401 13.0278C11.7331 12.9259 11.7331 12.8204 11.7401 12.7185C11.7612 12.6166 11.7893 12.5182 11.821 12.4233C11.8596 12.3459 11.9018 12.2686 11.951 12.1948C11.9545 12.1878 11.9581 12.1807 11.9616 12.1772C11.9967 12.1386 12.0319 12.0999 12.0705 12.0612C12.1092 12.0226 12.1478 11.9874 12.1865 11.9523C12.1935 11.9488 12.1971 11.9453 12.2041 11.9417C12.2779 11.8925 12.3552 11.8504 12.4325 11.8117C12.531 11.7766 12.6294 11.7519 12.7278 11.7309C12.8297 11.7238 12.9352 11.7238 13.0371 11.7309C13.139 11.7519 13.2374 11.7801 13.3323 11.8117C13.4096 11.8504 13.487 11.8925 13.5608 11.9417C13.5678 11.9453 13.5748 11.9488 13.5784 11.9523L13.6943 12.0577C13.733 12.0964 13.7682 12.1351 13.8033 12.1737C13.8068 12.1807 13.8103 12.1843 13.8138 12.1913C13.8631 12.2651 13.9052 12.3424 13.9439 12.4198C13.979 12.5182 14.0036 12.6166 14.0247 12.715C14.0318 12.8204 14.0318 12.9224 14.0247 13.0243ZM22.3055 21.3016C22.2844 21.4035 22.2563 21.5019 22.2247 21.6003C22.186 21.6776 22.1438 21.755 22.0946 21.8288C22.0911 21.8358 22.0876 21.8393 22.0841 21.8464C22.0489 21.885 22.0138 21.9272 21.9751 21.9623C21.9365 22.001 21.8978 22.0361 21.8591 22.0713C21.8556 22.0748 21.8486 22.0783 21.8416 22.0818C21.7678 22.131 21.694 22.1732 21.6166 22.2119C21.5182 22.247 21.4198 22.2716 21.3179 22.2927C21.2159 22.2998 21.1105 22.2998 21.0086 22.2927C20.9066 22.2716 20.8082 22.2435 20.7098 22.2119C20.6325 22.1732 20.5552 22.131 20.4849 22.0818C20.4778 22.0783 20.4743 22.0748 20.4673 22.0713C20.4286 22.0361 20.3865 22.001 20.3513 21.9623C20.3126 21.9237 20.2775 21.885 20.2424 21.8464C20.2388 21.8393 20.2353 21.8358 20.2318 21.8288C20.1826 21.755 20.1404 21.6812 20.1018 21.6003C20.0666 21.5019 20.042 21.4035 20.0209 21.3016C20.0139 21.1996 20.0139 21.0942 20.0209 20.9923C20.042 20.8903 20.0701 20.7919 20.1018 20.6935C20.1404 20.6162 20.1826 20.5389 20.2318 20.465C20.2353 20.458 20.2388 20.451 20.2424 20.4475C20.2775 20.4088 20.3126 20.3702 20.3513 20.3315C20.39 20.2928 20.4286 20.2612 20.4673 20.226C20.4743 20.2225 20.4778 20.219 20.4849 20.2155C20.5587 20.1663 20.6325 20.1241 20.7098 20.0855C20.8082 20.0503 20.9066 20.0257 21.0086 20.0046C21.1105 19.9976 21.2159 19.9976 21.3179 20.0046C21.4198 20.0257 21.5182 20.0538 21.6166 20.0855C21.694 20.1241 21.7713 20.1663 21.8416 20.2155C21.8486 20.219 21.8556 20.2225 21.8591 20.226L21.9751 20.3315C22.0138 20.3702 22.0489 20.4088 22.0841 20.4475C22.0876 20.4545 22.0911 20.458 22.0946 20.465C22.1438 20.5389 22.186 20.6127 22.2247 20.6935C22.2598 20.7919 22.2844 20.8903 22.3055 20.9923C22.3125 21.0942 22.3125 21.1961 22.3055 21.3016Z" fill="#1FC1C3"/>
</g>
</svg>
